<svg xmlns="http://www.w3.org/2000/svg"  viewBox="0 0 48 48" width="48px" height="48px" fill-rule="evenodd" clip-rule="evenodd" baseProfile="basic"><path fill="#2196f3" d="M18.999,35.499v-1.992c0-7.452,6.048-13.507,13.5-13.507	s13.5,6.055,13.5,13.507v1.992c0,1.38-1.12,2.501-2.5,2.501h-22C20.119,38.001,18.999,36.879,18.999,35.499z"/><path fill="#2196f3" d="M32.499,5.003c3.588,0,6.5,2.916,6.5,6.504	c0,3.588-2.912,6.504-6.5,6.504c-3.588,0-6.5-2.916-6.5-6.504C25.999,7.919,28.911,5.003,32.499,5.003z"/><path fill="#2196f3" d="M1.999,44.001V33.505c0-7.452,6.048-13.507,13.5-13.507	c3.225,0,6.187,1.133,8.509,3.024l-2.393,14.976h-8.787l-7.417,7.417c-0.361,0.361-0.861,0.585-1.413,0.585	C2.895,46.001,1.999,45.103,1.999,44.001z"/><path fill="#2196f3" d="M15.499,5.001c3.588,0,6.5,2.916,6.5,6.504	c0,3.588-2.912,6.504-6.5,6.504s-6.5-2.916-6.5-6.504C8.999,7.917,11.911,5.001,15.499,5.001z"/><path fill="#1574c0" fill-rule="evenodd" d="M18.999,35.499v-1.992	c0-4.232,1.951-8.013,5.001-10.491c3.049,2.477,4.999,6.259,4.999,10.488v1.992c0,1.38-1.12,2.501-2.5,2.501h-5.125	C20.051,37.933,18.999,36.838,18.999,35.499z" clip-rule="evenodd"/></svg>