<?xml version="1.0" encoding="UTF-8"?>
<svg id="Capa_1" xmlns="http://www.w3.org/2000/svg" version="1.1" viewBox="0 0 600 600">
  <!-- Generator: Adobe Illustrator 30.2.1, SVG Export Plug-In . SVG Version: 2.1.1 Build 1)  -->
  <defs>
    <style>
      .st0, .st1, .st2, .st3, .st4 {
        stroke: #000;
      }

      .st0, .st1, .st4 {
        stroke-miterlimit: 10;
        stroke-width: 6px;
      }

      .st0, .st5 {
        fill: #f8fffe;
      }

      .st1 {
        stroke-linecap: round;
      }

      .st1, .st6 {
        fill: none;
      }

      .st7 {
        fill: #fff;
      }

      .st8, .st2, .st3, .st4 {
        fill: #3e484c;
      }

      .st9 {
        fill: #c5d3d0;
      }

      .st2 {
        stroke-miterlimit: 10;
        stroke-width: 6px;
      }

      .st3 {
        stroke-miterlimit: 10;
        stroke-width: 6px;
      }
    </style>
  </defs>
  <g id="COLA">
    <path class="st4" d="M214.15,382.82s30.62,100.6-49.01,146.19c-79.63,45.59-112.71-38.61-81.48-62.93,31.23-24.33,99.4-50.89,130.49-83.26Z"/>
  </g>
  <g id="CUERPO">
    <path class="st0" d="M493.63,329.68c-.28-3.11-.68-6.1-1.18-9-1.68-9.61-4.63-18.24-9.09-26.71-3.14-5.98-7.03-11.88-11.76-18.01-28.51-36.94-73.48-52.87-106.19-59.73-5.12-1.07-10.12-1.97-14.92-2.71-16.26-3.45-33.15-5.29-50.49-5.29s-34.23,1.83-50.48,5.28c-4.8.74-9.8,1.63-14.93,2.71-32.7,6.86-77.67,22.79-106.19,59.73-4.73,6.13-8.62,12.03-11.76,18.01-4.46,8.48-7.41,17.1-9.09,26.71-.51,2.9-.9,5.9-1.18,9.01-11.42,87.99-11.24,121.07,16.23,162.73,29.48,44.72,75.97,64,109.78,72.31,34.96,8.59,64.15,7.57,67.46,7.42v-.02h.32v.02h0c3.34.15,32.52,1.16,67.46-7.42,33.81-8.3,80.3-27.59,109.78-72.31,27.46-41.66,27.65-74.74,16.23-162.73h0Z"/>
    <path class="st9" d="M186.84,497.07c18.8,32.47,48.46,46.47,70.02,52.5,22.3,6.23,40.92,5.5,43.03,5.39h.02s.04-.01.08-.01h.1c2.13.12,20.74.85,43.03-5.38,21.57-6.03,51.22-20.03,70.02-52.5,19.07-32.93,17.52-58.47,8.25-136.12l-.02-.16h0c-.13-1.09-.49-2.12-1.06-2.97-27.04-40.67-70.86-67.1-120.33-67.1s-93.2,26.38-120.25,66.98c-.59.88-.99,1.94-1.13,3.07,0,.06-.02.12-.02.18-9.27,77.64-10.82,103.18,8.25,136.12h.01Z"/>
  </g>
  <g id="PIES">
    <g id="PIE_DER">
      <ellipse class="st2" cx="390.66" cy="545.1" rx="47.66" ry="39.75" transform="translate(-254.33 728.8) rotate(-70.27)"/>
      <ellipse class="st9" cx="390.66" cy="545.1" rx="29.06" ry="24.24" transform="translate(-254.33 728.8) rotate(-70.27)"/>
    </g>
    <g id="PIE_IZQ">
      <ellipse class="st3" cx="209.39" cy="545.05" rx="39.75" ry="47.66" transform="translate(-171.71 102.69) rotate(-19.73)"/>
      <ellipse class="st9" cx="209.39" cy="545.05" rx="24.24" ry="29.06" transform="translate(-171.71 102.69) rotate(-19.73)"/>
    </g>
  </g>
  <g id="BRAZOS">
    <g id="BRAZO_DER">
      <path class="st8" d="M470.39,417.87c-4.28-10-13.59-16.41-24.96-18.56l.02-.44s-.35.1-.98.28c-5.3,1.56-31.44,9.57-53.17,21.4-20.25,11.02-36.65,25.36-28.77,40.88,9.8,19.31,34.05,19.86,53.29,16.68,8.23.24,17.14-1.56,25.78-5.64,23.98-11.3,36.87-35.75,28.8-54.62v.02Z"/>
      <path d="M400.47,482.66c-16.26,0-32.52-4.54-40.55-20.07-3.03-5.86-3.22-11.92-.56-18.02,12.34-28.3,84.88-48.76,87.96-49.62,1.59-.44,3.25.49,3.69,2.09s-.49,3.25-2.08,3.7c-.73.2-72.86,20.54-84.07,46.24-1.93,4.42-1.8,8.63.39,12.87,16.44,31.82,78.07,8.54,78.69,8.3,1.54-.59,3.28.18,3.88,1.72s-.17,3.28-1.72,3.88c-1.58.61-23.6,8.93-45.62,8.93v-.02Z"/>
    </g>
    <g id="BRAZO_IZQ">
      <path class="st8" d="M129.61,417.87c4.28-10,13.59-16.41,24.96-18.56l-.02-.44s.35.1.98.28c5.3,1.56,31.44,9.57,53.17,21.4,20.25,11.02,36.65,25.36,28.77,40.88-9.8,19.31-34.05,19.86-53.29,16.68-8.23.24-17.14-1.56-25.78-5.64-23.98-11.3-36.87-35.75-28.8-54.62v.02Z"/>
      <path d="M199.53,482.66c16.26,0,32.52-4.54,40.55-20.07,3.03-5.86,3.22-11.92.56-18.02-12.34-28.3-84.88-48.76-87.96-49.62-1.59-.44-3.25.49-3.69,2.09s.49,3.25,2.08,3.7c.73.2,72.86,20.54,84.07,46.24,1.93,4.42,1.8,8.63-.39,12.87-16.44,31.82-78.07,8.54-78.69,8.3-1.54-.59-3.28.18-3.88,1.72s.17,3.28,1.72,3.88c1.58.61,23.6,8.93,45.62,8.93v-.02Z"/>
    </g>
  </g>
  <g id="OREJA2">
    <g>
      <path class="st4" d="M172.49,235.1s-54.59-2.73-59.14-51.86,56.41-86.43,90.07-54.59c33.66,31.84,34.57,58.23,34.57,58.23l-65.51,48.22h0Z"/>
      <path class="st9" d="M170.83,216.11s-34.59-1.74-37.47-32.97,35.74-54.94,57.07-34.7c21.33,20.24,21.91,37.01,21.91,37.01l-41.51,30.65h0Z"/>
    </g>
  </g>
  <g id="OREJA1">
    <g>
      <path class="st4" d="M427.51,235.1s54.59-2.73,59.14-51.86c4.55-49.13-56.41-86.43-90.07-54.59-33.66,31.84-34.57,58.23-34.57,58.23l65.51,48.22h-.01Z"/>
      <path class="st9" d="M429.17,216.11s34.59-1.74,37.47-32.97-35.74-54.94-57.07-34.7c-21.33,20.24-21.91,37.01-21.91,37.01l41.51,30.65h0Z"/>
    </g>
  </g>
  <g id="CABEZA">
    <g id="COLOR">
      <path class="st5" d="M300,156.18c-143.55-2.3-229.73,138.12-184.53,197.67,38.83,51.15,149.42,49.86,184.53,48.07,35.11,1.79,145.7,3.07,184.53-48.07,45.21-59.55-40.98-199.96-184.53-197.67h0Z"/>
      <g>
        <path class="st9" d="M153.03,352.56c-8.81,3.04-18.4-1.4-21.55-10.26-1.09-3.08-1.44-6.75-.43-11.08,4.05-17.3,28.41-23.4,35.94-8.83.72,1.4,1.35,2.75,1.9,4.05,4.07,9.66-.96,20.98-10.81,24.38l-5.05,1.74Z"/>
        <path class="st9" d="M446.97,352.56c8.81,3.04,18.4-1.4,21.55-10.26,1.09-3.08,1.44-6.75.43-11.08-4.05-17.3-28.41-23.4-35.94-8.83-.72,1.4-1.35,2.75-1.9,4.05-4.07,9.66.96,20.98,10.81,24.38l5.05,1.74h0Z"/>
      </g>
      <g>
        <path class="st6" d="M300,317c73.55,0,134.74,26.45,147.61,61.37,14-6.6,26.06-15.19,34.53-26.34,16.04-21.12,15.21-54.28-2.22-88.7-26.41-52.16-91.06-104.18-176.49-104.18-1.12,0-2.24,0-3.38.03h-.1c-1.13-.02-2.26-.03-3.38-.03-85.44,0-150.08,52.02-176.49,104.18-17.43,34.41-18.26,67.57-2.22,88.7,8.46,11.15,20.53,19.74,34.53,26.34,12.87-34.92,74.06-61.37,147.61-61.37h0Z"/>
        <path d="M485.27,260.62c-14.84-29.31-39.56-55.98-69.6-75.07-34.34-21.83-74.3-33.02-115.67-32.37-41.33-.65-81.33,10.54-115.67,32.37-30.04,19.1-54.75,45.76-69.6,75.07-18.49,36.51-19.1,72.04-1.64,95.04,8.1,10.68,19.59,19.69,34.35,27,1.62.8,3.59-.02,4.11-1.75.02-.05.03-.11.05-.16.42-1.38-.22-2.86-1.52-3.5-13.01-6.45-24.22-14.69-32.21-25.22-16.04-21.13-15.21-54.28,2.22-88.7,26.41-52.16,91.05-104.18,176.49-104.18,1.12,0,2.25,0,3.38.03h.1c1.13-.02,2.25-.03,3.38-.03,85.44,0,150.08,52.02,176.49,104.18,17.43,34.41,18.25,67.57,2.22,88.7-7.99,10.53-19.2,18.78-32.21,25.22-1.3.64-1.94,2.11-1.52,3.5.02.05.03.11.05.16.52,1.73,2.49,2.56,4.11,1.75,14.76-7.32,26.24-16.33,34.35-27,17.46-23,16.84-58.53-1.64-95.04h-.02Z"/>
      </g>
    </g>
    <g id="MANCHA">
      <g>
        <path class="st8" d="M249.03,320.75c-23.95,18.24-57.89,14.35-76.52-9.63-6.48-8.34-11.27-19.26-12.55-33.55-5.12-57.18,63.45-100.59,101.32-63.53,3.64,3.57,6.95,7.07,9.94,10.5,22.28,25.51,18.31,65.37-8.45,85.75l-13.74,10.47h0Z"/>
        <path class="st8" d="M350.97,320.75c23.95,18.24,57.89,14.35,76.52-9.63,6.48-8.34,11.27-19.26,12.55-33.55,5.12-57.18-63.45-100.59-101.32-63.53-3.64,3.57-6.95,7.07-9.94,10.5-22.28,25.51-18.31,65.37,8.45,85.75l13.74,10.47h0Z"/>
      </g>
    </g>
    <g id="NARIZ">
      <path d="M310.03,325.25l14.58-11.23c4.25-3.28,1.94-10.09-3.43-10.09h-42.35c-5.37,0-7.69,6.81-3.43,10.09l14.58,11.23c5.91,4.55,14.15,4.55,20.06,0h0Z"/>
    </g>
  </g>
  <g id="BOCA">
    <polyline class="st1" points="272.29 334.71 300 346.75 327.71 334.71"/>
  </g>
  <g id="OJOS">
    <g>
      <g>
        <ellipse cx="235.83" cy="290.83" rx="24.78" ry="24.6"/>
        <ellipse class="st7" cx="241.32" cy="284.13" rx="6.65" ry="7.81"/>
      </g>
      <g>
        <ellipse cx="364.17" cy="290.83" rx="24.78" ry="24.6"/>
        <ellipse class="st7" cx="358.68" cy="284.13" rx="6.65" ry="7.81"/>
      </g>
    </g>
  </g>
</svg>